<?xml version="1.0" encoding="utf-8"?>
<!-- Generator: Adobe Illustrator 22.0.1, SVG Export Plug-In . SVG Version: 6.00 Build 0)  -->
<svg version="1.1" id="external_x5F_link" xmlns="http://www.w3.org/2000/svg" xmlns:xlink="http://www.w3.org/1999/xlink" x="0px"
	 y="0px" viewBox="0 0 560 556.5" style="enable-background:new 0 0 560 556.5;" xml:space="preserve">
<style type="text/css">
	.st0{fill:#143A67;stroke:#143A67;stroke-width:11;stroke-miterlimit:10;}
</style>
<g>
	<g>
		<path class="st0" d="M533.5,120.5c0,0-0.1,0-0.1,0l0,0h-34.7v-11.9c0.2-4.7-2.8-8.9-7.4-10.2c-24.1-6.3-48.8-9.5-73.7-9.4
			c-40.9,0-96.6,9.2-137.8,51.1C239,97.8,182.8,89,142,89c-24.9-0.1-49.7,3.1-73.7,9.4c-4.5,1.3-7.5,5.5-7.4,10.2v11.8H26.5
			c-5.6,0-10.2,4.6-10.2,10.2v326.5c0,5.6,4.6,10.2,10.2,10.2c1.8,0,3.5-0.5,5-1.3c1-0.5,103.3-56.4,246-20.4h1.5h0.9
			c0.8,0.1,1.6,0.1,2.5,0c143.1-36.3,245.4,19.5,246,20.4c3.2,1.8,7.1,1.8,10.2,0c3.1-1.8,5.1-5.2,5.1-8.8V130.8
			C543.7,125.1,539.1,120.5,533.5,120.5z M36.7,440.9V141h24.4v256.4c-0.1,5.6,4.5,10.3,10.1,10.3c0.6,0,1.1,0,1.6-0.1
			c21.2-3.2,42.5-4.9,63.9-5.1c29.6-0.5,59.1,3.9,87.3,13.2C160.5,408,96,416.7,36.7,440.9z M136.8,382.2c-18.6,0-37.2,1.2-55.6,3.6
			v-269c19.9-4.4,40.2-6.7,60.6-6.7c38.2,0,91,8.8,127.6,50.1l0.3,254.7C248.5,400.9,207,382.2,136.8,382.2z M290.2,160.1
			c36.6-40.9,89.4-50.1,127.6-50.1c20.4,0.1,40.7,2.3,60.6,6.7v269c-18.3-2.4-36.8-3.6-55.3-3.7c-69.7,0-111.3,18.7-132.9,32.6
			V160.1z M523.2,440.9c-59.4-24.3-124.1-33-187.8-25.3c28.3-9.3,57.9-13.7,87.7-13.2c21.5,0.1,43,1.8,64.3,5
			c5.6,0.8,10.8-3,11.6-8.6c0.1-0.5,0.1-1.1,0.1-1.6V141h24.4L523.2,440.9z"/>
	</g>
</g>
</svg>
