<?xml version="1.0" encoding="utf-8"?>
<!-- Generator: Adobe Illustrator 16.0.3, SVG Export Plug-In . SVG Version: 6.00 Build 0)  -->
<!DOCTYPE svg PUBLIC "-//W3C//DTD SVG 1.1//EN" "http://www.w3.org/Graphics/SVG/1.1/DTD/svg11.dtd">
<svg version="1.1" id="Layer_1" xmlns="http://www.w3.org/2000/svg" xmlns:xlink="http://www.w3.org/1999/xlink" x="0px" y="0px"
	 width="612px" height="792px" viewBox="0 0 612 792" enable-background="new 0 0 612 792" xml:space="preserve">
<g id="circle">
	<circle fill="#363935" cx="306" cy="396" r="306"/>
</g>
<g id="magnify">
	<g>
		<path fill="#FFFFFF" d="M244.8,518.4l-9.792-7.345l24.48-34.271l3.672,1.224c26.928,13.464,56.304,17.136,84.456,13.464l0,0l0,0
			c36.72-4.896,72.216-24.479,95.472-57.527c24.48-31.824,33.048-70.992,26.928-107.712l0,0l0,0l0,0
			c-4.896-36.72-25.703-70.992-57.527-95.472C381.888,207.504,342.72,197.712,306,203.832l0,0l0,0
			c-36.72,4.896-72.216,24.48-95.472,57.528c-24.48,31.824-33.048,70.992-26.928,107.712l0,0l0,0
			c3.672,28.152,17.136,55.081,37.944,77.112l2.448,2.448l-24.48,33.048l-9.792-7.344l-56.304,75.888l56.304,41.616L244.8,518.4z
			 M341.496,446.184c-25.704,3.673-51.408-2.447-73.44-18.359c-22.032-15.912-35.496-40.392-39.168-64.872l0,0l0,0
			c-3.672-24.48,2.448-51.408,18.36-73.44c15.912-22.032,40.392-35.496,64.872-39.168l0,0h1.224
			c25.704-3.672,51.408,2.448,73.44,18.36s35.496,40.392,39.168,64.872l0,0l0,0l0,0c3.672,24.48-2.448,51.408-18.36,73.439
			C390.456,429.048,365.976,442.512,341.496,446.184L341.496,446.184z"/>
	</g>
	<polygon fill="#FFFFFF" points="379.44,334.8 342.72,334.8 342.72,298.08 318.24,298.08 318.24,334.8 281.52,334.8 281.52,359.28 
		318.24,359.28 318.24,396 342.72,396 342.72,359.28 379.44,359.28 	"/>
</g>
</svg>
